<mxfile host="app.diagrams.net" modified="2022-01-15T22:43:40.663Z" agent="5.0 (Windows)" etag="U_Uut6iEZs886aqYnneg" version="16.2.7" type="github">
  <diagram id="kgpKYQtTHZ0yAKxKKP6v" name="Page-1">
    <mxGraphModel dx="813" dy="405" grid="1" gridSize="10" guides="1" tooltips="1" connect="1" arrows="1" fold="1" page="1" pageScale="1" pageWidth="850" pageHeight="1100" math="0" shadow="0">
      <root>
        <mxCell id="0" />
        <mxCell id="1" parent="0" />
        <mxCell id="S7Xec3WN9F86lYyFSPIw-45" value="" style="edgeStyle=orthogonalEdgeStyle;rounded=0;orthogonalLoop=1;jettySize=auto;html=1;fontSize=12;entryX=0.502;entryY=0.902;entryDx=0;entryDy=0;entryPerimeter=0;" edge="1" parent="1" source="3nuBFxr9cyL0pnOWT2aG-1" target="S7Xec3WN9F86lYyFSPIw-7">
          <mxGeometry relative="1" as="geometry">
            <Array as="points">
              <mxPoint x="180" y="441" />
              <mxPoint x="180" y="441" />
            </Array>
          </mxGeometry>
        </mxCell>
        <mxCell id="S7Xec3WN9F86lYyFSPIw-46" value="fetchItemBufferOne()" style="edgeLabel;html=1;align=center;verticalAlign=middle;resizable=0;points=[];fontSize=12;" vertex="1" connectable="0" parent="S7Xec3WN9F86lYyFSPIw-45">
          <mxGeometry x="-0.165" y="-3" relative="1" as="geometry">
            <mxPoint x="-32" y="-13" as="offset" />
          </mxGeometry>
        </mxCell>
        <mxCell id="3nuBFxr9cyL0pnOWT2aG-1" value="Coffee" style="shape=umlLifeline;perimeter=lifelinePerimeter;container=1;collapsible=0;recursiveResize=0;rounded=0;shadow=0;strokeWidth=1;" parent="1" vertex="1">
          <mxGeometry x="40" y="80" width="80" height="400" as="geometry" />
        </mxCell>
        <mxCell id="3nuBFxr9cyL0pnOWT2aG-2" value="" style="points=[];perimeter=orthogonalPerimeter;rounded=0;shadow=0;strokeWidth=1;" parent="3nuBFxr9cyL0pnOWT2aG-1" vertex="1">
          <mxGeometry x="35" y="70" width="10" height="190" as="geometry" />
        </mxCell>
        <mxCell id="S7Xec3WN9F86lYyFSPIw-18" value="" style="edgeStyle=orthogonalEdgeStyle;rounded=0;orthogonalLoop=1;jettySize=auto;html=1;fontSize=12;exitX=0.516;exitY=0.296;exitDx=0;exitDy=0;exitPerimeter=0;" edge="1" parent="1" source="3nuBFxr9cyL0pnOWT2aG-5">
          <mxGeometry relative="1" as="geometry">
            <mxPoint x="170" y="130" as="sourcePoint" />
            <mxPoint x="85" y="170" as="targetPoint" />
            <Array as="points">
              <mxPoint x="241" y="170" />
            </Array>
          </mxGeometry>
        </mxCell>
        <mxCell id="S7Xec3WN9F86lYyFSPIw-19" value="harvestItem()" style="edgeLabel;html=1;align=center;verticalAlign=middle;resizable=0;points=[];fontSize=12;" vertex="1" connectable="0" parent="S7Xec3WN9F86lYyFSPIw-18">
          <mxGeometry x="-0.2272" relative="1" as="geometry">
            <mxPoint x="-20" y="-10" as="offset" />
          </mxGeometry>
        </mxCell>
        <mxCell id="S7Xec3WN9F86lYyFSPIw-20" value="" style="edgeStyle=orthogonalEdgeStyle;rounded=0;orthogonalLoop=1;jettySize=auto;html=1;fontSize=12;" edge="1" parent="1" source="3nuBFxr9cyL0pnOWT2aG-5" target="3nuBFxr9cyL0pnOWT2aG-2">
          <mxGeometry relative="1" as="geometry">
            <Array as="points">
              <mxPoint x="160" y="200" />
              <mxPoint x="160" y="200" />
            </Array>
          </mxGeometry>
        </mxCell>
        <mxCell id="S7Xec3WN9F86lYyFSPIw-21" value="processItem()" style="edgeLabel;html=1;align=center;verticalAlign=middle;resizable=0;points=[];fontSize=12;" vertex="1" connectable="0" parent="S7Xec3WN9F86lYyFSPIw-20">
          <mxGeometry x="0.2285" relative="1" as="geometry">
            <mxPoint x="15" y="-10" as="offset" />
          </mxGeometry>
        </mxCell>
        <mxCell id="S7Xec3WN9F86lYyFSPIw-22" value="" style="edgeStyle=orthogonalEdgeStyle;rounded=0;orthogonalLoop=1;jettySize=auto;html=1;fontSize=12;" edge="1" parent="1" source="3nuBFxr9cyL0pnOWT2aG-5" target="3nuBFxr9cyL0pnOWT2aG-2">
          <mxGeometry relative="1" as="geometry">
            <Array as="points">
              <mxPoint x="180" y="230" />
              <mxPoint x="180" y="230" />
            </Array>
          </mxGeometry>
        </mxCell>
        <mxCell id="S7Xec3WN9F86lYyFSPIw-23" value="packItem()" style="edgeLabel;html=1;align=center;verticalAlign=middle;resizable=0;points=[];fontSize=12;" vertex="1" connectable="0" parent="S7Xec3WN9F86lYyFSPIw-22">
          <mxGeometry x="0.2181" y="-2" relative="1" as="geometry">
            <mxPoint x="15" y="-8" as="offset" />
          </mxGeometry>
        </mxCell>
        <mxCell id="S7Xec3WN9F86lYyFSPIw-24" value="" style="edgeStyle=orthogonalEdgeStyle;rounded=0;orthogonalLoop=1;jettySize=auto;html=1;fontSize=12;" edge="1" parent="1" source="3nuBFxr9cyL0pnOWT2aG-5" target="3nuBFxr9cyL0pnOWT2aG-2">
          <mxGeometry relative="1" as="geometry">
            <Array as="points">
              <mxPoint x="130" y="260" />
              <mxPoint x="130" y="260" />
            </Array>
          </mxGeometry>
        </mxCell>
        <mxCell id="S7Xec3WN9F86lYyFSPIw-25" value="addItem()" style="edgeLabel;html=1;align=center;verticalAlign=middle;resizable=0;points=[];fontSize=12;" vertex="1" connectable="0" parent="S7Xec3WN9F86lYyFSPIw-24">
          <mxGeometry x="-0.2686" relative="1" as="geometry">
            <mxPoint x="-23" y="-10" as="offset" />
          </mxGeometry>
        </mxCell>
        <mxCell id="3nuBFxr9cyL0pnOWT2aG-5" value="Farmer" style="shape=umlLifeline;perimeter=lifelinePerimeter;container=1;collapsible=0;recursiveResize=0;rounded=0;shadow=0;strokeWidth=1;" parent="1" vertex="1">
          <mxGeometry x="200" y="80" width="80" height="300" as="geometry" />
        </mxCell>
        <mxCell id="3nuBFxr9cyL0pnOWT2aG-6" value="" style="points=[];perimeter=orthogonalPerimeter;rounded=0;shadow=0;strokeWidth=1;" parent="3nuBFxr9cyL0pnOWT2aG-5" vertex="1">
          <mxGeometry x="35" y="80" width="10" height="160" as="geometry" />
        </mxCell>
        <mxCell id="S7Xec3WN9F86lYyFSPIw-27" value="" style="edgeStyle=orthogonalEdgeStyle;rounded=0;orthogonalLoop=1;jettySize=auto;html=1;fontSize=12;" edge="1" parent="1" source="S7Xec3WN9F86lYyFSPIw-1" target="3nuBFxr9cyL0pnOWT2aG-6">
          <mxGeometry relative="1" as="geometry">
            <Array as="points">
              <mxPoint x="320" y="290" />
              <mxPoint x="320" y="290" />
            </Array>
          </mxGeometry>
        </mxCell>
        <mxCell id="S7Xec3WN9F86lYyFSPIw-28" value="&lt;div&gt;buyItem()&lt;/div&gt;" style="edgeLabel;html=1;align=center;verticalAlign=middle;resizable=0;points=[];fontSize=12;" vertex="1" connectable="0" parent="S7Xec3WN9F86lYyFSPIw-27">
          <mxGeometry x="0.7596" relative="1" as="geometry">
            <mxPoint x="57" y="-10" as="offset" />
          </mxGeometry>
        </mxCell>
        <mxCell id="S7Xec3WN9F86lYyFSPIw-1" value="Distributor" style="shape=umlLifeline;perimeter=lifelinePerimeter;container=1;collapsible=0;recursiveResize=0;rounded=0;shadow=0;strokeWidth=1;" vertex="1" parent="1">
          <mxGeometry x="360" y="80" width="80" height="300" as="geometry" />
        </mxCell>
        <mxCell id="S7Xec3WN9F86lYyFSPIw-2" value="" style="points=[];perimeter=orthogonalPerimeter;rounded=0;shadow=0;strokeWidth=1;" vertex="1" parent="S7Xec3WN9F86lYyFSPIw-1">
          <mxGeometry x="35" y="180" width="10" height="90" as="geometry" />
        </mxCell>
        <mxCell id="S7Xec3WN9F86lYyFSPIw-4" value="Retailer" style="shape=umlLifeline;perimeter=lifelinePerimeter;container=1;collapsible=0;recursiveResize=0;rounded=0;shadow=0;strokeWidth=1;" vertex="1" parent="1">
          <mxGeometry x="520" y="80" width="80" height="400" as="geometry" />
        </mxCell>
        <mxCell id="S7Xec3WN9F86lYyFSPIw-29" value="Farmer" style="shape=umlLifeline;perimeter=lifelinePerimeter;container=1;collapsible=0;recursiveResize=0;rounded=0;shadow=0;strokeWidth=1;" vertex="1" parent="S7Xec3WN9F86lYyFSPIw-4">
          <mxGeometry x="-320" width="80" height="400" as="geometry" />
        </mxCell>
        <mxCell id="S7Xec3WN9F86lYyFSPIw-30" value="" style="points=[];perimeter=orthogonalPerimeter;rounded=0;shadow=0;strokeWidth=1;" vertex="1" parent="S7Xec3WN9F86lYyFSPIw-29">
          <mxGeometry x="35" y="80" width="10" height="160" as="geometry" />
        </mxCell>
        <mxCell id="S7Xec3WN9F86lYyFSPIw-31" value="Distributor" style="shape=umlLifeline;perimeter=lifelinePerimeter;container=1;collapsible=0;recursiveResize=0;rounded=0;shadow=0;strokeWidth=1;" vertex="1" parent="S7Xec3WN9F86lYyFSPIw-4">
          <mxGeometry x="-160" width="80" height="400" as="geometry" />
        </mxCell>
        <mxCell id="S7Xec3WN9F86lYyFSPIw-32" value="" style="points=[];perimeter=orthogonalPerimeter;rounded=0;shadow=0;strokeWidth=1;" vertex="1" parent="S7Xec3WN9F86lYyFSPIw-31">
          <mxGeometry x="35" y="180" width="10" height="140" as="geometry" />
        </mxCell>
        <mxCell id="S7Xec3WN9F86lYyFSPIw-41" value="" style="edgeStyle=orthogonalEdgeStyle;rounded=0;orthogonalLoop=1;jettySize=auto;html=1;fontSize=12;entryX=0.5;entryY=0.786;entryDx=0;entryDy=0;entryPerimeter=0;" edge="1" parent="S7Xec3WN9F86lYyFSPIw-4" source="S7Xec3WN9F86lYyFSPIw-38" target="S7Xec3WN9F86lYyFSPIw-32">
          <mxGeometry relative="1" as="geometry">
            <Array as="points">
              <mxPoint y="290" />
              <mxPoint y="290" />
            </Array>
          </mxGeometry>
        </mxCell>
        <mxCell id="S7Xec3WN9F86lYyFSPIw-42" value="receiveItem()" style="edgeLabel;html=1;align=center;verticalAlign=middle;resizable=0;points=[];fontSize=12;" vertex="1" connectable="0" parent="S7Xec3WN9F86lYyFSPIw-41">
          <mxGeometry x="-0.1398" y="-1" relative="1" as="geometry">
            <mxPoint x="-8" y="-9" as="offset" />
          </mxGeometry>
        </mxCell>
        <mxCell id="S7Xec3WN9F86lYyFSPIw-37" value="Distributor" style="shape=umlLifeline;perimeter=lifelinePerimeter;container=1;collapsible=0;recursiveResize=0;rounded=0;shadow=0;strokeWidth=1;" vertex="1" parent="S7Xec3WN9F86lYyFSPIw-4">
          <mxGeometry width="80" height="400" as="geometry" />
        </mxCell>
        <mxCell id="S7Xec3WN9F86lYyFSPIw-38" value="" style="points=[];perimeter=orthogonalPerimeter;rounded=0;shadow=0;strokeWidth=1;" vertex="1" parent="S7Xec3WN9F86lYyFSPIw-37">
          <mxGeometry x="35" y="240" width="10" height="100" as="geometry" />
        </mxCell>
        <mxCell id="S7Xec3WN9F86lYyFSPIw-39" value="" style="edgeStyle=orthogonalEdgeStyle;rounded=0;orthogonalLoop=1;jettySize=auto;html=1;fontSize=12;" edge="1" parent="S7Xec3WN9F86lYyFSPIw-4" source="S7Xec3WN9F86lYyFSPIw-31" target="S7Xec3WN9F86lYyFSPIw-37">
          <mxGeometry relative="1" as="geometry">
            <Array as="points">
              <mxPoint x="-50" y="260" />
              <mxPoint x="-50" y="260" />
            </Array>
          </mxGeometry>
        </mxCell>
        <mxCell id="S7Xec3WN9F86lYyFSPIw-40" value="shipItem()" style="edgeLabel;html=1;align=center;verticalAlign=middle;resizable=0;points=[];fontSize=12;" vertex="1" connectable="0" parent="S7Xec3WN9F86lYyFSPIw-39">
          <mxGeometry x="-0.1199" y="-1" relative="1" as="geometry">
            <mxPoint x="10" y="-11" as="offset" />
          </mxGeometry>
        </mxCell>
        <mxCell id="S7Xec3WN9F86lYyFSPIw-7" value="Consumer" style="shape=umlLifeline;perimeter=lifelinePerimeter;container=1;collapsible=0;recursiveResize=0;rounded=0;shadow=0;strokeWidth=1;" vertex="1" parent="1">
          <mxGeometry x="680" y="80" width="80" height="400" as="geometry" />
        </mxCell>
        <mxCell id="S7Xec3WN9F86lYyFSPIw-8" value="" style="points=[];perimeter=orthogonalPerimeter;rounded=0;shadow=0;strokeWidth=1;" vertex="1" parent="S7Xec3WN9F86lYyFSPIw-7">
          <mxGeometry x="35" y="300" width="10" height="50" as="geometry" />
        </mxCell>
        <mxCell id="S7Xec3WN9F86lYyFSPIw-43" value="" style="edgeStyle=orthogonalEdgeStyle;rounded=0;orthogonalLoop=1;jettySize=auto;html=1;fontSize=12;" edge="1" parent="S7Xec3WN9F86lYyFSPIw-7" source="S7Xec3WN9F86lYyFSPIw-8">
          <mxGeometry relative="1" as="geometry">
            <mxPoint x="-120" y="320" as="targetPoint" />
            <Array as="points">
              <mxPoint x="-120" y="320" />
            </Array>
          </mxGeometry>
        </mxCell>
        <mxCell id="S7Xec3WN9F86lYyFSPIw-44" value="purchaseItem()" style="edgeLabel;html=1;align=center;verticalAlign=middle;resizable=0;points=[];fontSize=12;" vertex="1" connectable="0" parent="S7Xec3WN9F86lYyFSPIw-43">
          <mxGeometry x="0.2688" y="-1" relative="1" as="geometry">
            <mxPoint x="23" y="-11" as="offset" />
          </mxGeometry>
        </mxCell>
        <mxCell id="S7Xec3WN9F86lYyFSPIw-47" value="" style="edgeStyle=orthogonalEdgeStyle;rounded=0;orthogonalLoop=1;jettySize=auto;html=1;fontSize=12;" edge="1" parent="1">
          <mxGeometry relative="1" as="geometry">
            <mxPoint x="80.23666666666674" y="466" as="sourcePoint" />
            <mxPoint x="720" y="466" as="targetPoint" />
            <Array as="points">
              <mxPoint x="719.57" y="466" />
            </Array>
          </mxGeometry>
        </mxCell>
        <mxCell id="S7Xec3WN9F86lYyFSPIw-48" value="fetchItemBufferTwo()" style="edgeLabel;html=1;align=center;verticalAlign=middle;resizable=0;points=[];fontSize=12;" vertex="1" connectable="0" parent="S7Xec3WN9F86lYyFSPIw-47">
          <mxGeometry x="-0.165" y="-3" relative="1" as="geometry">
            <mxPoint x="-32" y="-13" as="offset" />
          </mxGeometry>
        </mxCell>
      </root>
    </mxGraphModel>
  </diagram>
</mxfile>
